<svg xmlns="http://www.w3.org/2000/svg" xmlns:xlink="http://www.w3.org/1999/xlink" width="740pt" height="629pt" viewBox="0.00 0.00 740.00 629.00">
<g id="graph0" class="graph" transform="scale(1 1) rotate(0) translate(4 625.4)">
<title>ER_Diagram</title>
<polygon fill="white" stroke="none" points="-4,4 -4,-625.4 735.79,-625.4 735.79,4 -4,4"/>
<!-- BOND_PURPOSES -->
<g id="node1" class="node">
<title>BOND_PURPOSES</title>
<polygon fill="#f0f8ff" stroke="none" points="30.03,-506 30.03,-596.4 153.98,-596.4 153.98,-506 30.03,-506"/>
<polygon fill="#3498db" stroke="none" points="30.03,-572 30.03,-596.4 153.98,-596.4 153.98,-572 30.03,-572"/>
<polygon fill="none" stroke="black" points="30.03,-572 30.03,-596.4 153.98,-596.4 153.98,-572 30.03,-572"/>
<text xml:space="preserve" text-anchor="start" x="37.66" y="-581.6" font-family="Arial" font-weight="bold" font-size="12.00" fill="WHITE">BOND_PURPOSES</text>
<polygon fill="none" stroke="black" points="30.03,-550 30.03,-572 130.09,-572 130.09,-550 30.03,-550"/>
<text xml:space="preserve" text-anchor="start" x="35.03" y="-559" font-family="Arial" text-decoration="underline" font-size="10.00">purpose_id</text>
<polygon fill="none" stroke="black" points="130.09,-550 130.09,-572 153.98,-572 153.98,-550 130.09,-550"/>
<text xml:space="preserve" text-anchor="start" x="135.09" y="-559" font-family="Arial" font-weight="bold" font-size="10.00">PK</text>
<polygon fill="none" stroke="black" points="30.03,-528 30.03,-550 130.09,-550 130.09,-528 30.03,-528"/>
<text xml:space="preserve" text-anchor="start" x="35.03" y="-536" font-family="Arial" font-size="10.00">purpose_category</text>
<polygon fill="none" stroke="black" points="130.09,-528 130.09,-550 153.98,-550 153.98,-528 130.09,-528"/>
<polygon fill="none" stroke="black" points="30.03,-506 30.03,-528 130.09,-528 130.09,-506 30.03,-506"/>
<text xml:space="preserve" text-anchor="start" x="35.03" y="-514" font-family="Arial" font-size="10.00">purpose_description</text>
<polygon fill="none" stroke="black" points="130.09,-506 130.09,-528 153.98,-528 153.98,-506 130.09,-506"/>
</g>
<!-- BONDS -->
<g id="node4" class="node">
<title>BONDS</title>
<polygon fill="#fff5ee" stroke="none" points="333.61,-351 333.61,-617.4 442.01,-617.4 442.01,-351 333.61,-351"/>
<polygon fill="#e74c3c" stroke="none" points="333.61,-593 333.61,-617.4 442.01,-617.4 442.01,-593 333.61,-593"/>
<polygon fill="none" stroke="black" points="333.61,-593 333.61,-617.4 442.01,-617.4 442.01,-593 333.61,-593"/>
<text xml:space="preserve" text-anchor="start" x="366.14" y="-602.6" font-family="Arial" font-weight="bold" font-size="12.00" fill="WHITE">BONDS</text>
<polygon fill="none" stroke="black" points="333.61,-571 333.61,-593 418.12,-593 418.12,-571 333.61,-571"/>
<text xml:space="preserve" text-anchor="start" x="338.61" y="-580" font-family="Arial" text-decoration="underline" font-size="10.00">bond_id</text>
<polygon fill="none" stroke="black" points="418.12,-571 418.12,-593 442.01,-593 442.01,-571 418.12,-571"/>
<text xml:space="preserve" text-anchor="start" x="423.12" y="-580" font-family="Arial" font-weight="bold" font-size="10.00">PK</text>
<polygon fill="none" stroke="black" points="333.61,-549 333.61,-571 418.12,-571 418.12,-549 333.61,-549"/>
<text xml:space="preserve" text-anchor="start" x="338.61" y="-558" font-family="Arial" font-style="italic" font-size="10.00">issuer_id</text>
<polygon fill="none" stroke="black" points="418.12,-549 418.12,-571 442.01,-571 442.01,-549 418.12,-549"/>
<text xml:space="preserve" text-anchor="start" x="423.12" y="-558" font-family="Arial" font-weight="bold" font-size="10.00">FK</text>
<polygon fill="none" stroke="black" points="333.61,-527 333.61,-549 418.12,-549 418.12,-527 333.61,-527"/>
<text xml:space="preserve" text-anchor="start" x="338.61" y="-536" font-family="Arial" font-style="italic" font-size="10.00">purpose_id</text>
<polygon fill="none" stroke="black" points="418.12,-527 418.12,-549 442.01,-549 442.01,-527 418.12,-527"/>
<text xml:space="preserve" text-anchor="start" x="423.12" y="-536" font-family="Arial" font-weight="bold" font-size="10.00">FK</text>
<polygon fill="none" stroke="black" points="333.61,-505 333.61,-527 418.12,-527 418.12,-505 333.61,-505"/>
<text xml:space="preserve" text-anchor="start" x="338.61" y="-513" font-family="Arial" font-size="10.00">cusip</text>
<polygon fill="none" stroke="black" points="418.12,-505 418.12,-527 442.01,-527 442.01,-505 418.12,-505"/>
<polygon fill="none" stroke="black" points="333.61,-483 333.61,-505 418.12,-505 418.12,-483 333.61,-483"/>
<text xml:space="preserve" text-anchor="start" x="338.61" y="-491" font-family="Arial" font-size="10.00">bond_type</text>
<polygon fill="none" stroke="black" points="418.12,-483 418.12,-505 442.01,-505 442.01,-483 418.12,-483"/>
<polygon fill="none" stroke="black" points="333.61,-461 333.61,-483 418.12,-483 418.12,-461 333.61,-461"/>
<text xml:space="preserve" text-anchor="start" x="338.61" y="-469" font-family="Arial" font-size="10.00">coupon_rate_pct</text>
<polygon fill="none" stroke="black" points="418.12,-461 418.12,-483 442.01,-483 442.01,-461 418.12,-461"/>
<polygon fill="none" stroke="black" points="333.61,-439 333.61,-461 418.12,-461 418.12,-439 333.61,-439"/>
<text xml:space="preserve" text-anchor="start" x="338.61" y="-447" font-family="Arial" font-size="10.00">issue_date</text>
<polygon fill="none" stroke="black" points="418.12,-439 418.12,-461 442.01,-461 442.01,-439 418.12,-439"/>
<polygon fill="none" stroke="black" points="333.61,-417 333.61,-439 418.12,-439 418.12,-417 333.61,-417"/>
<text xml:space="preserve" text-anchor="start" x="338.61" y="-425" font-family="Arial" font-size="10.00">maturity_date</text>
<polygon fill="none" stroke="black" points="418.12,-417 418.12,-439 442.01,-439 442.01,-417 418.12,-417"/>
<polygon fill="none" stroke="black" points="333.61,-395 333.61,-417 418.12,-417 418.12,-395 333.61,-395"/>
<text xml:space="preserve" text-anchor="start" x="338.61" y="-403" font-family="Arial" font-size="10.00">face_value_usd</text>
<polygon fill="none" stroke="black" points="418.12,-395 418.12,-417 442.01,-417 442.01,-395 418.12,-395"/>
<polygon fill="none" stroke="black" points="333.61,-373 333.61,-395 418.12,-395 418.12,-373 333.61,-373"/>
<text xml:space="preserve" text-anchor="start" x="338.61" y="-381" font-family="Arial" font-size="10.00">duration_years</text>
<polygon fill="none" stroke="black" points="418.12,-373 418.12,-395 442.01,-395 442.01,-373 418.12,-373"/>
<polygon fill="none" stroke="black" points="333.61,-351 333.61,-373 418.12,-373 418.12,-351 333.61,-351"/>
<text xml:space="preserve" text-anchor="start" x="338.61" y="-359" font-family="Arial" font-size="10.00">tax_status</text>
<polygon fill="none" stroke="black" points="418.12,-351 418.12,-373 442.01,-373 442.01,-351 418.12,-351"/>
</g>
<!-- BOND_PURPOSES&#45;&gt;BONDS -->
<g id="edge2" class="edge">
<title>BOND_PURPOSES-&gt;BONDS</title>
<path fill="none" stroke="#3498db" stroke-width="1.5" d="M172,-533.19C220.33,-522.16 281.23,-508.28 325.84,-498.1"/>
<polygon fill="#3498db" stroke="#3498db" stroke-width="1.5" points="172.13,-533.16 161.38,-530.99 166.76,-534.38 162.87,-535.27 162.87,-535.27 162.87,-535.27 166.76,-534.38 163.38,-539.77 172.13,-533.16"/>
<text xml:space="preserve" text-anchor="middle" x="254.81" y="-523.91" font-family="Times,serif" font-size="14.00" fill="#2c3e50">Funds</text>
<text xml:space="preserve" text-anchor="middle" x="320.78" y="-485.5" font-family="Times,serif" font-size="14.00" fill="#2c3e50">N</text>
<text xml:space="preserve" text-anchor="middle" x="165.39" y="-522.89" font-family="Times,serif" font-size="14.00" fill="#2c3e50">1</text>
</g>
<!-- ISSUERS -->
<g id="node2" class="node">
<title>ISSUERS</title>
<polygon fill="#f0fff0" stroke="none" points="22.81,-284 22.81,-440.4 161.2,-440.4 161.2,-284 22.81,-284"/>
<polygon fill="#27ae60" stroke="none" points="22.81,-416 22.81,-440.4 161.2,-440.4 161.2,-416 22.81,-416"/>
<polygon fill="none" stroke="black" points="22.81,-416 22.81,-440.4 161.2,-440.4 161.2,-416 22.81,-416"/>
<text xml:space="preserve" text-anchor="start" x="65.66" y="-425.6" font-family="Arial" font-weight="bold" font-size="12.00" fill="WHITE">ISSUERS</text>
<polygon fill="none" stroke="black" points="22.81,-394 22.81,-416 137.31,-416 137.31,-394 22.81,-394"/>
<text xml:space="preserve" text-anchor="start" x="27.81" y="-403" font-family="Arial" text-decoration="underline" font-size="10.00">issuer_id</text>
<polygon fill="none" stroke="black" points="137.31,-394 137.31,-416 161.2,-416 161.2,-394 137.31,-394"/>
<text xml:space="preserve" text-anchor="start" x="142.31" y="-403" font-family="Arial" font-weight="bold" font-size="10.00">PK</text>
<polygon fill="none" stroke="black" points="22.81,-372 22.81,-394 137.31,-394 137.31,-372 22.81,-372"/>
<text xml:space="preserve" text-anchor="start" x="27.81" y="-380" font-family="Arial" font-size="10.00">issuer_name</text>
<polygon fill="none" stroke="black" points="137.31,-372 137.31,-394 161.2,-394 161.2,-372 137.31,-372"/>
<polygon fill="none" stroke="black" points="22.81,-350 22.81,-372 137.31,-372 137.31,-350 22.81,-350"/>
<text xml:space="preserve" text-anchor="start" x="27.81" y="-358" font-family="Arial" font-size="10.00">state_code</text>
<polygon fill="none" stroke="black" points="137.31,-350 137.31,-372 161.2,-372 161.2,-350 137.31,-350"/>
<polygon fill="none" stroke="black" points="22.81,-328 22.81,-350 137.31,-350 137.31,-328 22.81,-328"/>
<text xml:space="preserve" text-anchor="start" x="27.81" y="-336" font-family="Arial" font-size="10.00">issuer_type</text>
<polygon fill="none" stroke="black" points="137.31,-328 137.31,-350 161.2,-350 161.2,-328 137.31,-328"/>
<polygon fill="none" stroke="black" points="22.81,-306 22.81,-328 137.31,-328 137.31,-306 22.81,-306"/>
<text xml:space="preserve" text-anchor="start" x="27.81" y="-314" font-family="Arial" font-size="10.00">population_num</text>
<polygon fill="none" stroke="black" points="137.31,-306 137.31,-328 161.2,-328 161.2,-306 137.31,-306"/>
<polygon fill="none" stroke="black" points="22.81,-284 22.81,-306 137.31,-306 137.31,-284 22.81,-284"/>
<text xml:space="preserve" text-anchor="start" x="27.81" y="-292" font-family="Arial" font-size="10.00">tax_base_millions_num</text>
<polygon fill="none" stroke="black" points="137.31,-284 137.31,-306 161.2,-306 161.2,-284 137.31,-284"/>
</g>
<!-- MACRO_ECONOMIC_DATA -->
<g id="node3" class="node">
<title>MACRO_ECONOMIC_DATA</title>
<polygon fill="#fffff0" stroke="none" points="8,-4 8,-160.4 176,-160.4 176,-4 8,-4"/>
<polygon fill="#f39c12" stroke="none" points="8,-136 8,-160.4 176,-160.4 176,-136 8,-136"/>
<polygon fill="none" stroke="black" points="8,-136 8,-160.4 176,-160.4 176,-136 8,-136"/>
<text xml:space="preserve" text-anchor="start" x="13" y="-145.6" font-family="Arial" font-weight="bold" font-size="12.00" fill="WHITE">MACRO_ECONOMIC_DATA</text>
<polygon fill="none" stroke="black" points="8,-114 8,-136 138.7,-136 138.7,-114 8,-114"/>
<text xml:space="preserve" text-anchor="start" x="13" y="-123" font-family="Arial" text-decoration="underline" font-size="10.00">state_code</text>
<polygon fill="none" stroke="black" points="138.7,-114 138.7,-136 176,-136 176,-114 138.7,-114"/>
<text xml:space="preserve" text-anchor="start" x="143.7" y="-123" font-family="Arial" font-weight="bold" font-size="10.00">PK</text>
<polygon fill="none" stroke="black" points="8,-92 8,-114 138.7,-114 138.7,-92 8,-92"/>
<text xml:space="preserve" text-anchor="start" x="13" y="-101" font-family="Arial" text-decoration="underline" font-size="10.00">date</text>
<polygon fill="none" stroke="black" points="138.7,-92 138.7,-114 176,-114 176,-92 138.7,-92"/>
<text xml:space="preserve" text-anchor="start" x="143.7" y="-101" font-family="Arial" font-weight="bold" font-size="10.00">PK</text>
<polygon fill="none" stroke="black" points="8,-70 8,-92 138.7,-92 138.7,-70 8,-70"/>
<text xml:space="preserve" text-anchor="start" x="13" y="-78" font-family="Arial" font-size="10.00">unemployment_rate_pct</text>
<polygon fill="none" stroke="black" points="138.7,-70 138.7,-92 176,-92 176,-70 138.7,-70"/>
<polygon fill="none" stroke="black" points="8,-48 8,-70 138.7,-70 138.7,-48 8,-48"/>
<text xml:space="preserve" text-anchor="start" x="13" y="-56" font-family="Arial" font-size="10.00">treasury_10yr_rate_pct</text>
<polygon fill="none" stroke="black" points="138.7,-48 138.7,-70 176,-70 176,-48 138.7,-48"/>
<polygon fill="none" stroke="black" points="8,-26 8,-48 138.7,-48 138.7,-26 8,-26"/>
<text xml:space="preserve" text-anchor="start" x="13" y="-34" font-family="Arial" font-size="10.00">treasury_20yr_rate_pct</text>
<polygon fill="none" stroke="black" points="138.7,-26 138.7,-48 176,-48 176,-26 138.7,-26"/>
<polygon fill="none" stroke="black" points="8,-4 8,-26 138.7,-26 138.7,-4 8,-4"/>
<text xml:space="preserve" text-anchor="start" x="13" y="-12" font-family="Arial" font-size="10.00">vix_index_num</text>
<polygon fill="none" stroke="black" points="138.7,-4 138.7,-26 176,-26 176,-4 138.7,-4"/>
</g>
<!-- ISSUERS&#45;&gt;MACRO_ECONOMIC_DATA -->
<g id="edge5" class="edge">
<title>ISSUERS-&gt;MACRO_ECONOMIC_DATA</title>
<path fill="none" stroke="#f39c12" stroke-dasharray="5,2" d="M92,-280.08C92,-243.62 92,-200.79 92,-164.32"/>
<text xml:space="preserve" text-anchor="middle" x="80.6" y="-218" font-family="Times,serif" font-size="14.00" fill="#f39c12">Linked by State</text>
</g>
<!-- ISSUERS&#45;&gt;BONDS -->
<g id="edge1" class="edge">
<title>ISSUERS-&gt;BONDS</title>
<path fill="none" stroke="#27ae60" stroke-width="1.5" d="M178.65,-397.76C225.83,-417.36 283.29,-441.22 325.88,-458.9"/>
<polygon fill="#27ae60" stroke="#27ae60" stroke-width="1.5" points="178.75,-397.8 171.24,-389.81 173.66,-395.69 169.97,-394.16 169.97,-394.16 169.97,-394.16 173.66,-395.69 167.78,-398.13 178.75,-397.8"/>
<text xml:space="preserve" text-anchor="middle" x="254.81" y="-441.92" font-family="Times,serif" font-size="14.00" fill="#2c3e50">Issued By</text>
<text xml:space="preserve" text-anchor="middle" x="320.83" y="-446.3" font-family="Times,serif" font-size="14.00" fill="#2c3e50">N</text>
<text xml:space="preserve" text-anchor="middle" x="172.55" y="-381.18" font-family="Times,serif" font-size="14.00" fill="#2c3e50">1</text>
</g>
<!-- CREDIT_RATINGS -->
<g id="node5" class="node">
<title>CREDIT_RATINGS</title>
<polygon fill="#e6e6fa" stroke="none" points="596.5,-406 596.5,-562.4 723.79,-562.4 723.79,-406 596.5,-406"/>
<polygon fill="#8e44ad" stroke="none" points="596.5,-538 596.5,-562.4 723.79,-562.4 723.79,-538 596.5,-538"/>
<polygon fill="none" stroke="black" points="596.5,-538 596.5,-562.4 723.79,-562.4 723.79,-538 596.5,-538"/>
<text xml:space="preserve" text-anchor="start" x="607.48" y="-547.6" font-family="Arial" font-weight="bold" font-size="12.00" fill="WHITE">CREDIT_RATINGS</text>
<polygon fill="none" stroke="black" points="596.5,-516 596.5,-538 699.9,-538 699.9,-516 596.5,-516"/>
<text xml:space="preserve" text-anchor="start" x="601.5" y="-525" font-family="Arial" text-decoration="underline" font-size="10.00">rating_id</text>
<polygon fill="none" stroke="black" points="699.9,-516 699.9,-538 723.79,-538 723.79,-516 699.9,-516"/>
<text xml:space="preserve" text-anchor="start" x="704.9" y="-525" font-family="Arial" font-weight="bold" font-size="10.00">PK</text>
<polygon fill="none" stroke="black" points="596.5,-494 596.5,-516 699.9,-516 699.9,-494 596.5,-494"/>
<text xml:space="preserve" text-anchor="start" x="601.5" y="-503" font-family="Arial" font-style="italic" font-size="10.00">bond_id</text>
<polygon fill="none" stroke="black" points="699.9,-494 699.9,-516 723.79,-516 723.79,-494 699.9,-494"/>
<text xml:space="preserve" text-anchor="start" x="704.9" y="-503" font-family="Arial" font-weight="bold" font-size="10.00">FK</text>
<polygon fill="none" stroke="black" points="596.5,-472 596.5,-494 699.9,-494 699.9,-472 596.5,-472"/>
<text xml:space="preserve" text-anchor="start" x="601.5" y="-480" font-family="Arial" font-size="10.00">rating_agency_name</text>
<polygon fill="none" stroke="black" points="699.9,-472 699.9,-494 723.79,-494 723.79,-472 699.9,-472"/>
<polygon fill="none" stroke="black" points="596.5,-450 596.5,-472 699.9,-472 699.9,-450 596.5,-450"/>
<text xml:space="preserve" text-anchor="start" x="601.5" y="-458" font-family="Arial" font-size="10.00">rating_code</text>
<polygon fill="none" stroke="black" points="699.9,-450 699.9,-472 723.79,-472 723.79,-450 699.9,-450"/>
<polygon fill="none" stroke="black" points="596.5,-428 596.5,-450 699.9,-450 699.9,-428 596.5,-428"/>
<text xml:space="preserve" text-anchor="start" x="601.5" y="-436" font-family="Arial" font-size="10.00">rating_date</text>
<polygon fill="none" stroke="black" points="699.9,-428 699.9,-450 723.79,-450 723.79,-428 699.9,-428"/>
<polygon fill="none" stroke="black" points="596.5,-406 596.5,-428 699.9,-428 699.9,-406 596.5,-406"/>
<text xml:space="preserve" text-anchor="start" x="601.5" y="-414" font-family="Arial" font-size="10.00">outlook</text>
<polygon fill="none" stroke="black" points="699.9,-406 699.9,-428 723.79,-428 723.79,-406 699.9,-406"/>
</g>
<!-- BONDS&#45;&gt;CREDIT_RATINGS -->
<g id="edge3" class="edge">
<title>BONDS-&gt;CREDIT_RATINGS</title>
<path fill="none" stroke="#8e44ad" stroke-width="1.5" d="M460.23,-484.2C499.97,-484.2 549.25,-484.2 588.81,-484.2"/>
<polygon fill="#8e44ad" stroke="#8e44ad" stroke-width="1.5" points="460.32,-484.2 450.32,-479.7 454.82,-484.2 450.82,-484.2 450.82,-484.2 450.82,-484.2 454.82,-484.2 450.32,-488.7 460.32,-484.2"/>
<text xml:space="preserve" text-anchor="middle" x="519.25" y="-488.4" font-family="Times,serif" font-size="14.00" fill="#2c3e50">Rated By</text>
<text xml:space="preserve" text-anchor="middle" x="583.76" y="-471.6" font-family="Times,serif" font-size="14.00" fill="#2c3e50">N</text>
<text xml:space="preserve" text-anchor="middle" x="453.32" y="-471.6" font-family="Times,serif" font-size="14.00" fill="#2c3e50">1</text>
</g>
<!-- TRADES -->
<g id="node6" class="node">
<title>TRADES</title>
<polygon fill="#f5f5f5" stroke="none" points="335.01,-49 335.01,-227.4 440.61,-227.4 440.61,-49 335.01,-49"/>
<polygon fill="#7f8c8d" stroke="none" points="335.01,-203 335.01,-227.4 440.61,-227.4 440.61,-203 335.01,-203"/>
<polygon fill="none" stroke="black" points="335.01,-203 335.01,-227.4 440.61,-227.4 440.61,-203 335.01,-203"/>
<text xml:space="preserve" text-anchor="start" x="363.14" y="-212.6" font-family="Arial" font-weight="bold" font-size="12.00" fill="WHITE">TRADES</text>
<polygon fill="none" stroke="black" points="335.01,-181 335.01,-203 416.72,-203 416.72,-181 335.01,-181"/>
<text xml:space="preserve" text-anchor="start" x="340.01" y="-190" font-family="Arial" text-decoration="underline" font-size="10.00">trade_id</text>
<polygon fill="none" stroke="black" points="416.72,-181 416.72,-203 440.61,-203 440.61,-181 416.72,-181"/>
<text xml:space="preserve" text-anchor="start" x="421.72" y="-190" font-family="Arial" font-weight="bold" font-size="10.00">PK</text>
<polygon fill="none" stroke="black" points="335.01,-159 335.01,-181 416.72,-181 416.72,-159 335.01,-159"/>
<text xml:space="preserve" text-anchor="start" x="340.01" y="-168" font-family="Arial" font-style="italic" font-size="10.00">bond_id</text>
<polygon fill="none" stroke="black" points="416.72,-159 416.72,-181 440.61,-181 440.61,-159 416.72,-159"/>
<text xml:space="preserve" text-anchor="start" x="421.72" y="-168" font-family="Arial" font-weight="bold" font-size="10.00">FK</text>
<polygon fill="none" stroke="black" points="335.01,-137 335.01,-159 416.72,-159 416.72,-137 335.01,-137"/>
<text xml:space="preserve" text-anchor="start" x="340.01" y="-145" font-family="Arial" font-size="10.00">trade_date</text>
<polygon fill="none" stroke="black" points="416.72,-137 416.72,-159 440.61,-159 440.61,-137 416.72,-137"/>
<polygon fill="none" stroke="black" points="335.01,-115 335.01,-137 416.72,-137 416.72,-115 335.01,-115"/>
<text xml:space="preserve" text-anchor="start" x="340.01" y="-123" font-family="Arial" font-size="10.00">trade_price_usd</text>
<polygon fill="none" stroke="black" points="416.72,-115 416.72,-137 440.61,-137 440.61,-115 416.72,-115"/>
<polygon fill="none" stroke="black" points="335.01,-93 335.01,-115 416.72,-115 416.72,-93 335.01,-93"/>
<text xml:space="preserve" text-anchor="start" x="340.01" y="-101" font-family="Arial" font-size="10.00">yield_pct</text>
<polygon fill="none" stroke="black" points="416.72,-93 416.72,-115 440.61,-115 440.61,-93 416.72,-93"/>
<polygon fill="none" stroke="black" points="335.01,-71 335.01,-93 416.72,-93 416.72,-71 335.01,-71"/>
<text xml:space="preserve" text-anchor="start" x="340.01" y="-79" font-family="Arial" font-size="10.00">quantity_num</text>
<polygon fill="none" stroke="black" points="416.72,-71 416.72,-93 440.61,-93 440.61,-71 416.72,-71"/>
<polygon fill="none" stroke="black" points="335.01,-49 335.01,-71 416.72,-71 416.72,-49 335.01,-49"/>
<text xml:space="preserve" text-anchor="start" x="340.01" y="-57" font-family="Arial" font-size="10.00">buyer_type</text>
<polygon fill="none" stroke="black" points="416.72,-49 416.72,-71 440.61,-71 440.61,-49 416.72,-49"/>
</g>
<!-- BONDS&#45;&gt;TRADES -->
<g id="edge4" class="edge">
<title>BONDS-&gt;TRADES</title>
<path fill="none" stroke="#7f8c8d" stroke-width="1.5" d="M387.81,-336.75C387.81,-301.02 387.81,-263.8 387.81,-231.38"/>
<polygon fill="#7f8c8d" stroke="#7f8c8d" stroke-width="1.5" points="387.81,-336.78 383.31,-346.78 387.81,-342.29 387.81,-346.28 387.81,-346.28 387.81,-346.28 387.81,-342.29 392.31,-346.78 387.81,-336.78"/>
<text xml:space="preserve" text-anchor="middle" x="376.41" y="-285" font-family="Times,serif" font-size="14.00" fill="#2c3e50">Traded As</text>
<text xml:space="preserve" text-anchor="middle" x="382.76" y="-235.58" font-family="Times,serif" font-size="14.00" fill="#2c3e50">N</text>
<text xml:space="preserve" text-anchor="middle" x="384.31" y="-334.69" font-family="Times,serif" font-size="14.00" fill="#2c3e50">1</text>
</g>
<!-- AUDIT_LOGS -->
<g id="node7" class="node">
<title>AUDIT_LOGS</title>
<polygon fill="#dcdcdc" stroke="none" points="600.95,-153 600.95,-309.4 719.34,-309.4 719.34,-153 600.95,-153"/>
<polygon fill="#555555" stroke="none" points="600.95,-285 600.95,-309.4 719.34,-309.4 719.34,-285 600.95,-285"/>
<polygon fill="none" stroke="black" points="600.95,-285 600.95,-309.4 719.34,-309.4 719.34,-285 600.95,-285"/>
<text xml:space="preserve" text-anchor="start" x="621.48" y="-294.6" font-family="Arial" font-weight="bold" font-size="12.00" fill="WHITE">AUDIT_LOGS</text>
<polygon fill="none" stroke="black" points="600.95,-263 600.95,-285 695.45,-285 695.45,-263 600.95,-263"/>
<text xml:space="preserve" text-anchor="start" x="605.95" y="-272" font-family="Arial" text-decoration="underline" font-size="10.00">log_id</text>
<polygon fill="none" stroke="black" points="695.45,-263 695.45,-285 719.34,-285 719.34,-263 695.45,-263"/>
<text xml:space="preserve" text-anchor="start" x="700.45" y="-272" font-family="Arial" font-weight="bold" font-size="10.00">PK</text>
<polygon fill="none" stroke="black" points="600.95,-241 600.95,-263 695.45,-263 695.45,-241 600.95,-241"/>
<text xml:space="preserve" text-anchor="start" x="605.95" y="-249" font-family="Arial" font-size="10.00">table_name</text>
<polygon fill="none" stroke="black" points="695.45,-241 695.45,-263 719.34,-263 719.34,-241 695.45,-241"/>
<polygon fill="none" stroke="black" points="600.95,-219 600.95,-241 695.45,-241 695.45,-219 600.95,-219"/>
<text xml:space="preserve" text-anchor="start" x="605.95" y="-227" font-family="Arial" font-size="10.00">record_id</text>
<polygon fill="none" stroke="black" points="695.45,-219 695.45,-241 719.34,-241 719.34,-219 695.45,-219"/>
<polygon fill="none" stroke="black" points="600.95,-197 600.95,-219 695.45,-219 695.45,-197 600.95,-197"/>
<text xml:space="preserve" text-anchor="start" x="605.95" y="-205" font-family="Arial" font-size="10.00">operation_type</text>
<polygon fill="none" stroke="black" points="695.45,-197 695.45,-219 719.34,-219 719.34,-197 695.45,-197"/>
<polygon fill="none" stroke="black" points="600.95,-175 600.95,-197 695.45,-197 695.45,-175 600.95,-175"/>
<text xml:space="preserve" text-anchor="start" x="605.95" y="-183" font-family="Arial" font-size="10.00">change_timestamp</text>
<polygon fill="none" stroke="black" points="695.45,-175 695.45,-197 719.34,-197 719.34,-175 695.45,-175"/>
<polygon fill="none" stroke="black" points="600.95,-153 600.95,-175 695.45,-175 695.45,-153 600.95,-153"/>
<text xml:space="preserve" text-anchor="start" x="605.95" y="-161" font-family="Arial" font-size="10.00">changed_by_user</text>
<polygon fill="none" stroke="black" points="695.45,-153 695.45,-175 719.34,-175 719.34,-153 695.45,-153"/>
</g>
<!-- BONDS&#45;&gt;AUDIT_LOGS -->
<g id="edge6" class="edge">
<title>BONDS-&gt;AUDIT_LOGS</title>
<path fill="none" stroke="#555555" stroke-dasharray="1,5" d="M449.82,-427.11C489.82,-389.67 542.37,-340.48 584.82,-300.76"/>
<polygon fill="#555555" stroke="#555555" points="587.15,-303.38 592.06,-293.99 582.36,-298.26 587.15,-303.38"/>
<text xml:space="preserve" text-anchor="middle" x="519.25" y="-384.56" font-family="Times,serif" font-size="14.00">Triggers</text>
</g>
<!-- TRADES&#45;&gt;AUDIT_LOGS -->
<g id="edge7" class="edge">
<title>TRADES-&gt;AUDIT_LOGS</title>
<path fill="none" stroke="#555555" stroke-dasharray="1,5" d="M448.47,-158.72C487.81,-172.26 539.7,-190.11 582.15,-204.71"/>
<polygon fill="#555555" stroke="#555555" points="580.97,-208.01 591.57,-207.95 583.25,-201.39 580.97,-208.01"/>
<text xml:space="preserve" text-anchor="middle" x="519.25" y="-194.47" font-family="Times,serif" font-size="14.00">Triggers</text>
</g>
</g>
</svg>